<svg width="42" height="42" viewBox="0 0 42 42" fill="none" xmlns="http://www.w3.org/2000/svg">
<g clip-path="url(#clip0_79_61)">
<circle cx="21" cy="21" r="21" fill="white"/>
<path d="M16.625 16.3187V25.6812C16.625 26.3813 16.9312 26.8917 17.5437 27.2125C18.1562 27.5333 18.7542 27.5042 19.3375 27.125L26.6 22.4875C27.1542 22.1667 27.4312 21.6708 27.4312 21C27.4312 20.3292 27.1542 19.8333 26.6 19.5125L19.3375 14.875C18.7542 14.4958 18.1562 14.4667 17.5437 14.7875C16.9312 15.1083 16.625 15.6187 16.625 16.3187ZM21 38.5C18.5792 38.5 16.3042 38.0403 14.175 37.121C12.0458 36.2028 10.1938 34.9563 8.61875 33.3813C7.04375 31.8063 5.79717 29.9542 4.879 27.825C3.95967 25.6958 3.5 23.4208 3.5 21C3.5 18.5792 3.95967 16.3042 4.879 14.175C5.79717 12.0458 7.04375 10.1938 8.61875 8.61875C10.1938 7.04375 12.0458 5.79658 14.175 4.87725C16.3042 3.95908 18.5792 3.5 21 3.5C23.4208 3.5 25.6958 3.95908 27.825 4.87725C29.9542 5.79658 31.8063 7.04375 33.3813 8.61875C34.9563 10.1938 36.2028 12.0458 37.121 14.175C38.0403 16.3042 38.5 18.5792 38.5 21C38.5 23.4208 38.0403 25.6958 37.121 27.825C36.2028 29.9542 34.9563 31.8063 33.3813 33.3813C31.8063 34.9563 29.9542 36.2028 27.825 37.121C25.6958 38.0403 23.4208 38.5 21 38.5ZM21 35C24.8792 35 28.1826 33.6367 30.9102 30.9102C33.6367 28.1826 35 24.8792 35 21C35 17.1208 33.6367 13.8174 30.9102 11.0897C28.1826 8.36325 24.8792 7 21 7C17.1208 7 13.818 8.36325 11.0915 11.0897C8.36383 13.8174 7 17.1208 7 21C7 24.8792 8.36383 28.1826 11.0915 30.9102C13.818 33.6367 17.1208 35 21 35Z" fill="#F44932"/>
</g>
<defs>
<clipPath id="clip0_79_61">
<rect width="42" height="42" fill="white"/>
</clipPath>
</defs>
</svg>
