<svg width="81" height="81" viewBox="0 0 81 81" fill="none" xmlns="http://www.w3.org/2000/svg">
<path d="M30.6041 29.9114V51.0885C30.6041 52.6718 31.2968 53.8263 32.6822 54.552C34.0677 55.2777 35.4201 55.2118 36.7395 54.3541L53.1666 43.8645C54.4201 43.1388 55.0468 42.0173 55.0468 40.5C55.0468 38.9826 54.4201 37.8611 53.1666 37.1354L36.7395 26.6458C35.4201 25.7882 34.0677 25.7222 32.6822 26.4479C31.2968 27.1736 30.6041 28.3281 30.6041 29.9114ZM40.5 80.0833C35.0243 80.0833 29.8784 79.0436 25.0625 76.9641C20.2465 74.8873 16.0573 72.0677 12.4948 68.5052C8.93225 64.9427 6.1126 60.7534 4.03579 55.9375C1.95635 51.1215 0.916626 45.9757 0.916626 40.5C0.916626 35.0243 1.95635 29.8784 4.03579 25.0625C6.1126 20.2465 8.93225 16.0573 12.4948 12.4948C16.0573 8.93225 20.2465 6.11128 25.0625 4.03183C29.8784 1.95503 35.0243 0.916626 40.5 0.916626C45.9757 0.916626 51.1215 1.95503 55.9375 4.03183C60.7534 6.11128 64.9427 8.93225 68.5052 12.4948C72.0677 16.0573 74.8873 20.2465 76.9641 25.0625C79.0436 29.8784 80.0833 35.0243 80.0833 40.5C80.0833 45.9757 79.0436 51.1215 76.9641 55.9375C74.8873 60.7534 72.0677 64.9427 68.5052 68.5052C64.9427 72.0677 60.7534 74.8873 55.9375 76.9641C51.1215 79.0436 45.9757 80.0833 40.5 80.0833ZM40.5 72.1666C49.2743 72.1666 56.7463 69.0831 62.916 62.916C69.0831 56.7463 72.1666 49.2743 72.1666 40.5C72.1666 31.7257 69.0831 24.2536 62.916 18.0839C56.7463 11.9168 49.2743 8.83329 40.5 8.83329C31.7257 8.83329 24.255 11.9168 18.0879 18.0839C11.9182 24.2536 8.83329 31.7257 8.83329 40.5C8.83329 49.2743 11.9182 56.7463 18.0879 62.916C24.255 69.0831 31.7257 72.1666 40.5 72.1666Z" fill="#F44932"/>
</svg>
